<svg width="1440" height="2200" viewBox="0 0 1440 2200" fill="none" xmlns="http://www.w3.org/2000/svg">
  <defs>
    <linearGradient id="bg" x1="120" y1="80" x2="1320" y2="2120" gradientUnits="userSpaceOnUse">
      <stop stop-color="#FFF8F1"/>
      <stop offset="0.52" stop-color="#FBF5EF"/>
      <stop offset="1" stop-color="#F6EDE5"/>
    </linearGradient>
    <linearGradient id="coral" x1="0" y1="0" x2="1" y2="1">
      <stop stop-color="#E59682"/>
      <stop offset="1" stop-color="#D86F5D"/>
    </linearGradient>
    <linearGradient id="sand" x1="0" y1="0" x2="1" y2="1">
      <stop stop-color="#F2E2CF"/>
      <stop offset="1" stop-color="#EAD6BF"/>
    </linearGradient>
    <linearGradient id="sage" x1="0" y1="0" x2="1" y2="1">
      <stop stop-color="#D4DEC2"/>
      <stop offset="1" stop-color="#B9C7A1"/>
    </linearGradient>
    <linearGradient id="ink" x1="0" y1="0" x2="1" y2="1">
      <stop stop-color="#44515E"/>
      <stop offset="1" stop-color="#28313B"/>
    </linearGradient>
    <filter id="shadow" x="-20%" y="-20%" width="140%" height="140%">
      <feDropShadow dx="0" dy="16" stdDeviation="24" flood-color="#48271C" flood-opacity="0.12"/>
    </filter>
  </defs>

  <rect width="1440" height="2200" fill="url(#bg)"/>
  <circle cx="180" cy="130" r="180" fill="#D86F5D" fill-opacity="0.12"/>
  <circle cx="1220" cy="260" r="220" fill="#B9C7A1" fill-opacity="0.22"/>

  <rect x="120" y="40" width="1200" height="76" rx="38" fill="#FFF8F1" fill-opacity="0.85" stroke="#E7D7C9"/>
  <rect x="146" y="54" width="48" height="48" rx="16" fill="url(#coral)"/>
  <text x="170" y="86" text-anchor="middle" fill="white" font-size="24" font-family="Georgia, serif">MN</text>
  <text x="212" y="77" fill="#231815" font-size="22" font-weight="700" font-family="Arial, sans-serif">Montana Nails</text>
  <text x="212" y="98" fill="#6F5B53" font-size="14" font-family="Arial, sans-serif">Santa Monica, CA</text>
  <text x="895" y="84" fill="#231815" font-size="16" font-family="Arial, sans-serif">Services</text>
  <text x="985" y="84" fill="#231815" font-size="16" font-family="Arial, sans-serif">Why Us</text>
  <text x="1065" y="84" fill="#231815" font-size="16" font-family="Arial, sans-serif">Highlights</text>
  <text x="1175" y="84" fill="#231815" font-size="16" font-family="Arial, sans-serif">Visit</text>
  <rect x="1230" y="56" width="74" height="44" rx="22" fill="#231815"/>
  <text x="1267" y="84" text-anchor="middle" fill="white" font-size="15" font-family="Arial, sans-serif">Book</text>

  <text x="120" y="190" fill="#8B3D35" font-size="14" font-weight="700" letter-spacing="3" font-family="Arial, sans-serif">LUXURY NAIL CARE ON MONTANA AVENUE</text>
  <text x="120" y="285" fill="#231815" font-size="88" font-family="Georgia, serif">Elegant nails,</text>
  <text x="120" y="365" fill="#231815" font-size="88" font-family="Georgia, serif">calm energy,</text>
  <text x="120" y="445" fill="#231815" font-size="88" font-family="Georgia, serif">and detail</text>
  <text x="120" y="525" fill="#231815" font-size="88" font-family="Georgia, serif">that shows.</text>
  <text x="120" y="585" fill="#6F5B53" font-size="24" font-family="Arial, sans-serif">A polished Santa Monica salon page with strong calls to action,</text>
  <text x="120" y="618" fill="#6F5B53" font-size="24" font-family="Arial, sans-serif">premium typography, and a warm clean-luxury visual direction.</text>

  <rect x="120" y="665" width="210" height="58" rx="29" fill="#231815"/>
  <text x="225" y="702" text-anchor="middle" fill="white" font-size="20" font-family="Arial, sans-serif">Call 310-393-5836</text>
  <rect x="350" y="665" width="210" height="58" rx="29" fill="#FFFFFF" fill-opacity="0.7" stroke="#E7D7C9"/>
  <text x="455" y="702" text-anchor="middle" fill="#231815" font-size="20" font-family="Arial, sans-serif">Explore Services</text>

  <circle cx="128" cy="775" r="6" fill="#D86F5D"/>
  <text x="148" y="782" fill="#6F5B53" font-size="22" font-family="Arial, sans-serif">Open daily, 9:30 AM to 8:30 PM</text>
  <circle cx="128" cy="820" r="6" fill="#D86F5D"/>
  <text x="148" y="827" fill="#6F5B53" font-size="22" font-family="Arial, sans-serif">729 Montana Avenue, Suite 1, Santa Monica</text>
  <circle cx="128" cy="865" r="6" fill="#D86F5D"/>
  <text x="148" y="872" fill="#6F5B53" font-size="22" font-family="Arial, sans-serif">Gel-X, spa pedicures, waxing, and signature artistry</text>

  <g filter="url(#shadow)">
    <rect x="845" y="180" width="475" height="680" rx="32" fill="#FFF7F0" stroke="#E7D7C9"/>
  </g>
  <text x="880" y="230" fill="#231815" font-size="22" font-weight="700" font-family="Arial, sans-serif">Signature care</text>
  <text x="1130" y="230" fill="#6F5B53" font-size="16" font-family="Arial, sans-serif">Since the first hello</text>

  <rect x="880" y="270" width="405" height="115" rx="20" fill="white" fill-opacity="0.75"/>
  <text x="905" y="312" fill="#231815" font-size="20" font-weight="700" font-family="Arial, sans-serif">Natural Nails</text>
  <text x="905" y="343" fill="#6F5B53" font-size="17" font-family="Arial, sans-serif">Classic, gel, collagen, paraffin, and jelly treatments</text>

  <rect x="880" y="405" width="405" height="115" rx="20" fill="white" fill-opacity="0.75"/>
  <text x="905" y="447" fill="#231815" font-size="20" font-weight="700" font-family="Arial, sans-serif">Nail Enhancement</text>
  <text x="905" y="478" fill="#6F5B53" font-size="17" font-family="Arial, sans-serif">Apres Gel-X, hard gel, builder gel, acrylic, and dip</text>

  <rect x="880" y="540" width="405" height="115" rx="20" fill="white" fill-opacity="0.75"/>
  <text x="905" y="582" fill="#231815" font-size="20" font-weight="700" font-family="Arial, sans-serif">Kiddicare</text>
  <text x="905" y="613" fill="#6F5B53" font-size="17" font-family="Arial, sans-serif">Thoughtful options for younger guests 10 and under</text>

  <rect x="880" y="675" width="405" height="115" rx="20" fill="white" fill-opacity="0.75"/>
  <text x="905" y="717" fill="#231815" font-size="20" font-weight="700" font-family="Arial, sans-serif">Custom Artistry</text>
  <text x="905" y="748" fill="#6F5B53" font-size="17" font-family="Arial, sans-serif">Detailed sets tailored to your shape, color palette, and finish</text>

  <line x1="120" y1="950" x2="1320" y2="950" stroke="#E7D7C9"/>
  <g fill="#6F5B53" font-family="Arial, sans-serif" font-size="18">
    <rect x="120" y="976" width="170" height="42" rx="21" fill="#FFFFFF" fill-opacity="0.6"/>
    <text x="205" y="1003" text-anchor="middle">Clean tools</text>
    <rect x="310" y="976" width="170" height="42" rx="21" fill="#FFFFFF" fill-opacity="0.6"/>
    <text x="395" y="1003" text-anchor="middle">Skilled artists</text>
    <rect x="500" y="976" width="190" height="42" rx="21" fill="#FFFFFF" fill-opacity="0.6"/>
    <text x="595" y="1003" text-anchor="middle">Spa-level pedicures</text>
    <rect x="710" y="976" width="220" height="42" rx="21" fill="#FFFFFF" fill-opacity="0.6"/>
    <text x="820" y="1003" text-anchor="middle">Montana Avenue convenience</text>
    <rect x="950" y="976" width="190" height="42" rx="21" fill="#FFFFFF" fill-opacity="0.6"/>
    <text x="1045" y="1003" text-anchor="middle">Custom nail art</text>
  </g>
  <line x1="120" y1="1040" x2="1320" y2="1040" stroke="#E7D7C9"/>

  <text x="120" y="1135" fill="#8B3D35" font-size="14" font-weight="700" letter-spacing="3" font-family="Arial, sans-serif">SERVICES</text>
  <text x="120" y="1210" fill="#231815" font-size="60" font-family="Georgia, serif">Designed for regular upkeep</text>
  <text x="120" y="1265" fill="#231815" font-size="60" font-family="Georgia, serif">or full-on indulgence.</text>

  <g filter="url(#shadow)">
    <rect x="120" y="1320" width="275" height="330" rx="24" fill="#FFF7F0" stroke="#E7D7C9"/>
    <rect x="415" y="1320" width="275" height="330" rx="24" fill="#FFFDF9" stroke="#E7D7C9"/>
    <rect x="710" y="1320" width="275" height="330" rx="24" fill="#FFFDF9" stroke="#E7D7C9"/>
    <rect x="1005" y="1320" width="275" height="330" rx="24" fill="#FFFDF9" stroke="#E7D7C9"/>
  </g>

  <g font-family="Arial, sans-serif">
    <text x="145" y="1365" fill="#231815" font-size="26" font-weight="700">Natural nails</text>
    <text x="145" y="1410" fill="#6F5B53" font-size="20">Classic Manicure</text><text x="350" y="1410" fill="#231815" font-size="20">$35</text>
    <text x="145" y="1450" fill="#6F5B53" font-size="20">Gel Polish Manicure</text><text x="350" y="1450" fill="#231815" font-size="20">$55</text>
    <text x="145" y="1490" fill="#6F5B53" font-size="20">Classic Pedicure</text><text x="350" y="1490" fill="#231815" font-size="20">$45</text>
    <text x="145" y="1530" fill="#6F5B53" font-size="20">Detox Delight Pedi</text><text x="350" y="1530" fill="#231815" font-size="20">$100</text>
    <text x="145" y="1570" fill="#6F5B53" font-size="20">Collagen Boost Pedi</text><text x="350" y="1570" fill="#231815" font-size="20">$110</text>

    <text x="440" y="1365" fill="#231815" font-size="26" font-weight="700">Enhancements</text>
    <text x="440" y="1410" fill="#6F5B53" font-size="20">Apres Gel-X Full Set</text><text x="645" y="1410" fill="#231815" font-size="20">$90</text>
    <text x="440" y="1450" fill="#6F5B53" font-size="20">IBD Hard Gel Full Set</text><text x="645" y="1450" fill="#231815" font-size="20">$90</text>
    <text x="440" y="1490" fill="#6F5B53" font-size="20">ORLY Builder Full Set</text><text x="645" y="1490" fill="#231815" font-size="20">$90</text>
    <text x="440" y="1530" fill="#6F5B53" font-size="20">Acrylic + Gel Color</text><text x="645" y="1530" fill="#231815" font-size="20">$90</text>
    <text x="440" y="1570" fill="#6F5B53" font-size="20">Dipping Powder</text><text x="645" y="1570" fill="#231815" font-size="20">$65</text>

    <text x="735" y="1365" fill="#231815" font-size="26" font-weight="700">Extras</text>
    <text x="735" y="1410" fill="#6F5B53" font-size="20">Nail Art</text><text x="940" y="1410" fill="#231815" font-size="20">$5+ / nail</text>
    <text x="735" y="1450" fill="#6F5B53" font-size="20">French Tip</text><text x="940" y="1450" fill="#231815" font-size="20">$20+</text>
    <text x="735" y="1490" fill="#6F5B53" font-size="20">Chrome Color</text><text x="940" y="1490" fill="#231815" font-size="20">$20</text>
    <text x="735" y="1530" fill="#6F5B53" font-size="20">Gel Removal</text><text x="940" y="1530" fill="#231815" font-size="20">$20</text>
    <text x="735" y="1570" fill="#6F5B53" font-size="20">Paraffin Treatment</text><text x="940" y="1570" fill="#231815" font-size="20">$15</text>

    <text x="1030" y="1365" fill="#231815" font-size="26" font-weight="700">More care</text>
    <text x="1030" y="1410" fill="#6F5B53" font-size="20">Kiddicare Manicure</text><text x="1235" y="1410" fill="#231815" font-size="20">$25</text>
    <text x="1030" y="1450" fill="#6F5B53" font-size="20">Kiddicare Pedicure</text><text x="1235" y="1450" fill="#231815" font-size="20">$35</text>
    <text x="1030" y="1490" fill="#6F5B53" font-size="20">Eyebrow Wax</text><text x="1235" y="1490" fill="#231815" font-size="20">$25+</text>
    <text x="1030" y="1530" fill="#6F5B53" font-size="20">Upper Lip Wax</text><text x="1235" y="1530" fill="#231815" font-size="20">$15+</text>
    <text x="1030" y="1570" fill="#6F5B53" font-size="20">Custom Design Consult</text><text x="1205" y="1570" fill="#231815" font-size="20">Call for pricing</text>
  </g>

  <text x="120" y="1760" fill="#8B3D35" font-size="14" font-weight="700" letter-spacing="3" font-family="Arial, sans-serif">HIGHLIGHTS</text>
  <text x="120" y="1835" fill="#231815" font-size="60" font-family="Georgia, serif">The look: bright, polished,</text>
  <text x="120" y="1890" fill="#231815" font-size="60" font-family="Georgia, serif">expressive, and camera-ready.</text>

  <g filter="url(#shadow)">
    <rect x="120" y="1940" width="320" height="200" rx="30" fill="url(#coral)"/>
    <rect x="460" y="1985" width="220" height="155" rx="30" fill="url(#sand)"/>
    <rect x="700" y="1985" width="220" height="155" rx="30" fill="url(#sage)"/>
    <rect x="940" y="1940" width="340" height="200" rx="30" fill="url(#ink)"/>
  </g>
  <g font-family="Arial, sans-serif">
    <text x="150" y="1980" fill="white" font-size="14" letter-spacing="2">SEASONAL ART</text>
    <text x="150" y="2025" fill="white" font-size="34" font-family="Georgia, serif">Statement sets</text>
    <text x="150" y="2060" fill="white" font-size="34" font-family="Georgia, serif">with chrome and</text>
    <text x="150" y="2095" fill="white" font-size="34" font-family="Georgia, serif">custom detail.</text>

    <text x="490" y="2025" fill="#6F5B53" font-size="14" letter-spacing="2">NEIGHBORHOOD EASE</text>
    <text x="490" y="2070" fill="#231815" font-size="28" font-family="Georgia, serif">Right on Montana</text>
    <text x="490" y="2102" fill="#231815" font-size="28" font-family="Georgia, serif">Avenue.</text>

    <text x="730" y="2025" fill="#6F5B53" font-size="14" letter-spacing="2">SPA RITUALS</text>
    <text x="730" y="2070" fill="#231815" font-size="28" font-family="Georgia, serif">Jelly, paraffin,</text>
    <text x="730" y="2102" fill="#231815" font-size="28" font-family="Georgia, serif">scrubs, massage.</text>

    <text x="970" y="1980" fill="white" font-size="14" letter-spacing="2">CUSTOM FINISH</text>
    <text x="970" y="2025" fill="white" font-size="34" font-family="Georgia, serif">Build a one-of-a-kind</text>
    <text x="970" y="2060" fill="white" font-size="34" font-family="Georgia, serif">set with texture,</text>
    <text x="970" y="2095" fill="white" font-size="34" font-family="Georgia, serif">color, and art.</text>
  </g>
</svg>
